<svg class="dia" viewBox="0 0 780 520" role="img" aria-label="Os quatro cenários de crescimento, 120 médicos ativos, escala logarítmica">
  <style>
    .grade{stroke:var(--linha);stroke-width:1}
    .grade-v{stroke:var(--linha);stroke-width:1;stroke-dasharray:2 3}
    .eixo-linha{stroke:var(--cinza);stroke-width:1.4}
    .eixo{font-size:11px;fill:var(--cinza);font-family:"IBM Plex Sans",sans-serif}
    .rotulo-valor{font-size:12px;font-weight:600;font-family:"IBM Plex Mono",monospace}
    .legenda{font-size:12.5px;fill:var(--tinta);font-family:"IBM Plex Sans",sans-serif}
  </style>
  <line x1="70" y1="390.0" x2="685" y2="390.0" class="grade"/><text x="60" y="394.0" text-anchor="end" class="eixo">100</text><line x1="70" y1="249.3" x2="685" y2="249.3" class="grade"/><text x="60" y="253.3" text-anchor="end" class="eixo">1.000</text><line x1="70" y1="108.7" x2="685" y2="108.7" class="grade"/><text x="60" y="112.7" text-anchor="end" class="eixo">10.000</text><line x1="70.0" y1="24" x2="70.0" y2="390" class="grade-v"/><text x="70.0" y="412" text-anchor="middle" class="eixo">0m</text><line x1="146.9" y1="24" x2="146.9" y2="390" class="grade-v"/><text x="146.9" y="412" text-anchor="middle" class="eixo">3m</text><line x1="223.8" y1="24" x2="223.8" y2="390" class="grade-v"/><text x="223.8" y="412" text-anchor="middle" class="eixo">6m</text><line x1="300.6" y1="24" x2="300.6" y2="390" class="grade-v"/><text x="300.6" y="412" text-anchor="middle" class="eixo">9m</text><line x1="377.5" y1="24" x2="377.5" y2="390" class="grade-v"/><text x="377.5" y="412" text-anchor="middle" class="eixo">12m</text><line x1="454.4" y1="24" x2="454.4" y2="390" class="grade-v"/><text x="454.4" y="412" text-anchor="middle" class="eixo">15m</text><line x1="531.2" y1="24" x2="531.2" y2="390" class="grade-v"/><text x="531.2" y="412" text-anchor="middle" class="eixo">18m</text><line x1="608.1" y1="24" x2="608.1" y2="390" class="grade-v"/><text x="608.1" y="412" text-anchor="middle" class="eixo">21m</text><line x1="685.0" y1="24" x2="685.0" y2="390" class="grade-v"/><text x="685.0" y="412" text-anchor="middle" class="eixo">24m</text><line x1="70" y1="390" x2="685" y2="390" class="eixo-linha"/><path d="M 70.0,378.9 L 146.9,375.9 L 223.8,372.9 L 300.6,369.9 L 377.5,366.9 L 454.4,364.0 L 531.2,361.0 L 608.1,358.0 L 685.0,355.0" fill="none" stroke="var(--azul)" stroke-width="2.5"/><circle cx="70.0" cy="378.9" r="2.5" fill="var(--azul)"/><circle cx="146.9" cy="375.9" r="2.5" fill="var(--azul)"/><circle cx="223.8" cy="372.9" r="2.5" fill="var(--azul)"/><circle cx="300.6" cy="369.9" r="2.5" fill="var(--azul)"/><circle cx="377.5" cy="366.9" r="2.5" fill="var(--azul)"/><circle cx="454.4" cy="364.0" r="2.5" fill="var(--azul)"/><circle cx="531.2" cy="361.0" r="2.5" fill="var(--azul)"/><circle cx="608.1" cy="358.0" r="2.5" fill="var(--azul)"/><circle cx="685.0" cy="355.0" r="2.5" fill="var(--azul)"/><text x="693.0" y="359.0" class="rotulo-valor" style="fill:var(--azul)">177</text><path d="M 70.0,378.9 L 146.9,362.8 L 223.8,346.8 L 300.6,330.8 L 377.5,314.8 L 454.4,298.7 L 531.2,282.7 L 608.1,266.7 L 685.0,250.6" fill="none" stroke="var(--ambar)" stroke-width="2.5"/><circle cx="70.0" cy="378.9" r="2.5" fill="var(--ambar)"/><circle cx="146.9" cy="362.8" r="2.5" fill="var(--ambar)"/><circle cx="223.8" cy="346.8" r="2.5" fill="var(--ambar)"/><circle cx="300.6" cy="330.8" r="2.5" fill="var(--ambar)"/><circle cx="377.5" cy="314.8" r="2.5" fill="var(--ambar)"/><circle cx="454.4" cy="298.7" r="2.5" fill="var(--ambar)"/><circle cx="531.2" cy="282.7" r="2.5" fill="var(--ambar)"/><circle cx="608.1" cy="266.7" r="2.5" fill="var(--ambar)"/><circle cx="685.0" cy="250.6" r="2.5" fill="var(--ambar)"/><text x="693.0" y="254.6" class="rotulo-valor" style="fill:var(--ambar)">979</text><path d="M 70.0,378.9 L 146.9,350.2 L 223.8,321.4 L 300.6,292.7 L 377.5,264.0 L 454.4,235.3 L 531.2,206.6 L 608.1,177.9 L 685.0,149.2" fill="none" stroke="var(--teal-escuro)" stroke-width="2.5"/><circle cx="70.0" cy="378.9" r="2.5" fill="var(--teal-escuro)"/><circle cx="146.9" cy="350.2" r="2.5" fill="var(--teal-escuro)"/><circle cx="223.8" cy="321.4" r="2.5" fill="var(--teal-escuro)"/><circle cx="300.6" cy="292.7" r="2.5" fill="var(--teal-escuro)"/><circle cx="377.5" cy="264.0" r="2.5" fill="var(--teal-escuro)"/><circle cx="454.4" cy="235.3" r="2.5" fill="var(--teal-escuro)"/><circle cx="531.2" cy="206.6" r="2.5" fill="var(--teal-escuro)"/><circle cx="608.1" cy="177.9" r="2.5" fill="var(--teal-escuro)"/><circle cx="685.0" cy="149.2" r="2.5" fill="var(--teal-escuro)"/><text x="693.0" y="153.2" class="rotulo-valor" style="fill:var(--teal-escuro)">5.154</text><path d="M 70.0,378.9 L 146.9,336.5 L 223.8,294.2 L 300.6,251.8 L 377.5,209.5 L 454.4,167.2 L 531.2,124.8 L 608.1,82.5 L 685.0,40.1" fill="none" stroke="var(--vermelho)" stroke-width="2.5"/><circle cx="70.0" cy="378.9" r="2.5" fill="var(--vermelho)"/><circle cx="146.9" cy="336.5" r="2.5" fill="var(--vermelho)"/><circle cx="223.8" cy="294.2" r="2.5" fill="var(--vermelho)"/><circle cx="300.6" cy="251.8" r="2.5" fill="var(--vermelho)"/><circle cx="377.5" cy="209.5" r="2.5" fill="var(--vermelho)"/><circle cx="454.4" cy="167.2" r="2.5" fill="var(--vermelho)"/><circle cx="531.2" cy="124.8" r="2.5" fill="var(--vermelho)"/><circle cx="608.1" cy="82.5" r="2.5" fill="var(--vermelho)"/><circle cx="685.0" cy="40.1" r="2.5" fill="var(--vermelho)"/><text x="693.0" y="44.1" class="rotulo-valor" style="fill:var(--vermelho)">30.720</text><rect x="70" y="440" width="14" height="14" rx="3" fill="var(--azul)"/><text x="90" y="451" class="legenda">K 0,05 · o funil de hoje, sem empurrar</text><rect x="425.0" y="440" width="14" height="14" rx="3" fill="var(--ambar)"/><text x="445.0" y="451" class="legenda">K 0,3 · a meta do beta</text><rect x="70" y="466" width="14" height="14" rx="3" fill="var(--teal-escuro)"/><text x="90" y="477" class="legenda">K 0,6 · convite entre médicos + secretária</text><rect x="425.0" y="466" width="14" height="14" rx="3" fill="var(--vermelho)"/><text x="445.0" y="477" class="legenda">K 1,0 · viral de verdade</text>
</svg>